<svg width="160" height="28" viewBox="0 0 160 28" fill="none" xmlns="http://www.w3.org/2000/svg">
<path d="M15.8 22.05C18.7 22.05 21.1167 21.0833 23.05 19.15L26.35 23C25.1833 24.4333 23.6833 25.5167 21.85 26.25C20.0167 26.9833 17.95 27.35 15.65 27.35C12.7167 27.35 10.1333 26.7667 7.9 25.6C5.66667 24.4333 3.93333 22.8167 2.7 20.75C1.5 18.65 0.9 16.2833 0.9 13.65C0.9 11.05 1.48333 8.71667 2.65 6.65C3.85 4.55 5.48333 2.91667 7.55 1.75C9.65 0.583333 12.0167 -1.07288e-06 14.65 -1.07288e-06C17.15 -1.07288e-06 19.4167 0.549999 21.45 1.65C23.5167 2.71667 25.15 4.26667 26.35 6.3C27.55 8.3 28.15 10.65 28.15 13.35L7.7 17.35C8.33333 18.8833 9.35 20.05 10.75 20.85C12.15 21.65 13.8333 22.05 15.8 22.05ZM14.65 5C12.35 5 10.4833 5.75 9.05 7.25C7.65 8.75 6.95 10.7667 6.95 13.3V13.35L22.05 10.45C21.6167 8.81667 20.7333 7.5 19.4 6.5C18.1 5.5 16.5167 5 14.65 5ZM65.8547 -1.07288e-06C69.2214 -1.07288e-06 71.888 0.983332 73.8547 2.95C75.8214 4.88333 76.8047 7.8 76.8047 11.7V27H70.5547V12.5C70.5547 10.1667 70.038 8.41667 69.0047 7.25C67.9714 6.05 66.488 5.45 64.5547 5.45C62.4547 5.45 60.7714 6.15 59.5047 7.55C58.238 8.91667 57.6047 10.8833 57.6047 13.45V27H51.3547V12.5C51.3547 10.1667 50.838 8.41667 49.8047 7.25C48.7714 6.05 47.288 5.45 45.3547 5.45C43.2214 5.45 41.5214 6.13333 40.2547 7.5C39.0214 8.86667 38.4047 10.85 38.4047 13.45V27H32.1547V0.299998H38.1047V3.7C39.1047 2.5 40.3547 1.58333 41.8547 0.949999C43.3547 0.316665 45.0214 -1.07288e-06 46.8547 -1.07288e-06C48.8547 -1.07288e-06 50.6214 0.383332 52.1547 1.15C53.7214 1.88333 54.9547 2.98333 55.8547 4.45C56.9547 3.05 58.3714 1.96667 60.1047 1.2C61.838 0.399999 63.7547 -1.07288e-06 65.8547 -1.07288e-06ZM116.491 -1.07288e-06C119.858 -1.07288e-06 122.525 0.983332 124.491 2.95C126.458 4.88333 127.441 7.8 127.441 11.7V27H121.191V12.5C121.191 10.1667 120.675 8.41667 119.641 7.25C118.608 6.05 117.125 5.45 115.191 5.45C113.091 5.45 111.408 6.15 110.141 7.55C108.875 8.91667 108.241 10.8833 108.241 13.45V27H101.991V12.5C101.991 10.1667 101.475 8.41667 100.441 7.25C99.4081 6.05 97.9247 5.45 95.9914 5.45C93.8581 5.45 92.1581 6.13333 90.8914 7.5C89.6581 8.86667 89.0414 10.85 89.0414 13.45V27H82.7914V0.299998H88.7414V3.7C89.7414 2.5 90.9914 1.58333 92.4914 0.949999C93.9914 0.316665 95.6581 -1.07288e-06 97.4914 -1.07288e-06C99.4914 -1.07288e-06 101.258 0.383332 102.791 1.15C104.358 1.88333 105.591 2.98333 106.491 4.45C107.591 3.05 109.008 1.96667 110.741 1.2C112.475 0.399999 114.391 -1.07288e-06 116.491 -1.07288e-06ZM159.772 0.299998V27H153.822V23.55C152.789 24.8167 151.506 25.7667 149.972 26.4C148.472 27.0333 146.806 27.35 144.972 27.35C142.372 27.35 140.039 26.7833 137.972 25.65C135.939 24.5167 134.339 22.9167 133.172 20.85C132.039 18.7833 131.472 16.3833 131.472 13.65C131.472 10.9167 132.039 8.53333 133.172 6.5C134.339 4.43333 135.939 2.83333 137.972 1.7C140.039 0.566665 142.372 -1.07288e-06 144.972 -1.07288e-06C146.706 -1.07288e-06 148.289 0.299999 149.722 0.899999C151.189 1.5 152.456 2.38333 153.522 3.55V0.299998H159.772ZM145.672 22C147.972 22 149.872 21.2333 151.372 19.7C152.872 18.1667 153.622 16.15 153.622 13.65C153.622 11.15 152.872 9.13333 151.372 7.6C149.872 6.06667 147.972 5.3 145.672 5.3C143.372 5.3 141.472 6.06667 139.972 7.6C138.506 9.13333 137.772 11.15 137.772 13.65C137.772 16.15 138.506 18.1667 139.972 19.7C141.472 21.2333 143.372 22 145.672 22Z" fill="#37170B"/>
</svg>
