<svg width="201" height="203" viewBox="0 0 201 203" fill="none" xmlns="http://www.w3.org/2000/svg">
<circle cx="100.35" cy="102.35" r="100.35" fill="#ECF4E3"/>
<rect width="200" height="200" rx="100" fill="#A8C583"/>
<path d="M133.593 68.6811C133.593 85.3995 119.004 99.0135 100.93 99.0135C82.8562 99.0135 68.2675 85.3995 68.2675 68.6811C68.2675 51.9626 82.8562 38.3486 100.93 38.3486C119.004 38.3486 133.593 51.9626 133.593 68.6811Z" fill="#DDA68D" stroke="black"/>
<path d="M62.6103 57.0416C74.8428 30.9891 94.3567 19.1811 108.349 23.9751C108.349 23.9751 115.263 43.0134 104.626 50.0275C93.9894 57.0416 72.7154 62.5528 74.8428 78.5849C76.9702 94.6169 96.191 93.995 102 100.508C107.809 107.021 81.273 108.771 79.0976 107.142C74.7468 103.885 50.3777 83.094 62.6103 57.0416Z" fill="#37170B"/>
<ellipse cx="84.3488" cy="69.1784" rx="3.74419" ry="4.47568" fill="#37170B"/>
<ellipse cx="117.512" cy="69.1784" rx="3.74419" ry="4.47568" fill="#37170B"/>
<path d="M87.5581 79.6216H116.442C116.442 80.4504 116.442 89.5675 103.07 91.0594C92.2379 92.2679 86.8449 85.4234 87.5581 79.6216Z" fill="white" stroke="white"/>
<path d="M145.474 68.2862C136.505 34.6247 126.37 21.7008 107.812 24.2325C108.574 29.3994 110.023 43.7807 110.023 43.7807C110.023 43.7807 117.12 51.4175 124.187 56.6398C131.255 61.862 131.283 78.9198 128.008 82.9708C124.733 87.0218 115.454 94.1109 109.45 96.6428C103.446 99.1746 107.812 104.238 107.812 104.238C107.812 104.238 115.192 110.524 126.37 109.302C137.549 108.08 151.508 85.8968 145.474 68.2862Z" fill="#37170B"/>
<path fill-rule="evenodd" clip-rule="evenodd" d="M81.1395 105.978C82.7442 105.481 96.6512 106.476 96.6512 106.476L107.884 103.492L131.419 108.962C135.698 109.957 140.512 115.924 142.116 126.368C143.721 136.811 142.116 147.751 142.116 147.751C142.116 147.751 138.372 169.135 118.047 170.627C103.603 171.687 91.8606 166.721 85.698 164.114C83.1882 163.053 81.6039 162.382 81.1395 162.67C79.5349 163.665 59.2093 165.654 53.3256 156.703C47.4418 147.751 61.8837 128.854 61.8837 128.854C61.8837 128.854 79.5349 106.476 81.1395 105.978ZM72.0465 148.746C72.0465 148.746 69.029 144.618 68.3023 139.795C64.7456 143.954 63.7813 146.349 63.4884 150.735L72.0465 148.746ZM130.812 129.343C130.812 129.343 129.796 145.396 128.629 145.784C127.463 146.172 121.013 148.561 121.013 148.561C122.67 140.655 130.812 129.343 130.812 129.343Z" fill="#F1F1F1"/>
<path d="M94.5117 117.416C94.5117 117.416 83.2791 116.422 82.2093 115.924C81.1396 115.427 86.4884 107.47 86.4884 107.47L93.4419 101.503H110.558L115.372 102.995L118.047 106.476C118.047 106.476 118.047 116.919 116.977 117.913C115.907 118.908 99.8605 117.913 99.8605 117.913C99.8605 117.913 97.7802 121.031 96.1163 120.4C94.8188 119.908 94.5117 117.416 94.5117 117.416Z" fill="white"/>
<path fill-rule="evenodd" clip-rule="evenodd" d="M98.6233 94.3828C98.0715 94.3604 97.6036 94.7894 97.5782 95.3411L97.1721 104.166C96.0345 109.953 94.4893 119.291 96.1242 120.34C97.282 121.083 98.2537 119.07 99.4329 116.627C100.686 114.03 102.174 110.948 104.369 110.173C105.776 109.676 106.577 108.604 107.019 107.392C107.133 107.238 107.204 107.049 107.213 106.844L107.217 106.753C107.512 105.622 107.546 104.438 107.504 103.522C107.495 103.318 107.456 103.121 107.393 102.935L107.723 95.7535C107.749 95.2018 107.322 94.7364 106.77 94.7139L98.6233 94.3828Z" fill="#DDA68D"/>
</svg>
