<svg width="48" height="47" viewBox="0 0 48 47" fill="none" xmlns="http://www.w3.org/2000/svg">
<path d="M24.0001 0C19.3852 0 14.8739 1.36848 11.0368 3.93238C7.19964 6.49628 4.20895 10.1404 2.4429 14.4041C0.676858 18.6677 0.21478 23.3592 1.1151 27.8854C2.01542 32.4117 4.23771 36.5693 7.50093 39.8325C10.7642 43.0957 14.9218 45.318 19.448 46.2183C23.9742 47.1186 28.6658 46.6566 32.9294 44.8905C37.193 43.1245 40.8371 40.1338 43.401 36.2966C45.9649 32.4595 47.3334 27.9482 47.3334 23.3333C47.3334 20.2692 46.7299 17.235 45.5573 14.4041C44.3847 11.5731 42.6659 9.00088 40.4992 6.83418C38.3325 4.66747 35.7603 2.94875 32.9294 1.77614C30.0984 0.603535 27.0643 0 24.0001 0ZM24.0001 42C20.3082 42 16.6992 40.9052 13.6294 38.8541C10.5597 36.803 8.16718 33.8876 6.75434 30.4768C5.34151 27.0659 4.97184 23.3126 5.6921 19.6916C6.41236 16.0707 8.19018 12.7446 10.8008 10.134C13.4113 7.52343 16.7374 5.7456 20.3584 5.02534C23.9794 4.30508 27.7326 4.67475 31.1435 6.08758C34.5544 7.50042 37.4697 9.89297 39.5209 12.9627C41.572 16.0324 42.6668 19.6414 42.6668 23.3333C42.6668 28.284 40.7001 33.032 37.1994 36.5327C33.6987 40.0333 28.9508 42 24.0001 42Z" fill="#37170B"/>
<path d="M24.0001 16.3334C25.2887 16.3334 26.3334 15.2887 26.3334 14C26.3334 12.7114 25.2887 11.6667 24.0001 11.6667C22.7114 11.6667 21.6667 12.7114 21.6667 14C21.6667 15.2887 22.7114 16.3334 24.0001 16.3334Z" fill="#37170B"/>
<path d="M24.0001 18.6667C23.3812 18.6667 22.7878 18.9125 22.3502 19.3501C21.9126 19.7877 21.6667 20.3812 21.6667 21V32.6667C21.6667 33.2855 21.9126 33.879 22.3502 34.3166C22.7878 34.7542 23.3812 35 24.0001 35C24.6189 35 25.2124 34.7542 25.65 34.3166C26.0876 33.879 26.3334 33.2855 26.3334 32.6667V21C26.3334 20.3812 26.0876 19.7877 25.65 19.3501C25.2124 18.9125 24.6189 18.6667 24.0001 18.6667Z" fill="#37170B"/>
</svg>
